<?xml version="1.0" standalone="no"?>
<!DOCTYPE svg PUBLIC "-//W3C//DTD SVG 20010904//EN"
 "http://www.w3.org/TR/2001/REC-SVG-20010904/DTD/svg10.dtd">
<svg version="1.0" xmlns="http://www.w3.org/2000/svg"
 width="512.000000pt" height="512.000000pt" viewBox="0 0 512.000000 512.000000"
 preserveAspectRatio="xMidYMid meet">

<g transform="translate(0.000000,512.000000) scale(0.100000,-0.100000)"
fill="#000000" stroke="none">
<path d="M1680 4794 c-29 -19 -1659 -2759 -1673 -2814 -9 -33 9 -73 388 -830
218 -437 406 -805 418 -818 l20 -22 1727 0 1726 0 26 27 c35 39 808 1419 808
1443 0 27 -1733 2977 -1766 3008 l-25 22 -812 0 c-724 -1 -815 -2 -837 -16z
m2330 -1451 c421 -712 789 -1336 817 -1384 l52 -89 -723 0 -724 0 -443 795
c-244 438 -591 1059 -771 1382 -181 322 -328 588 -328 590 0 2 305 3 678 3
l677 0 765 -1297z m-2140 960 c73 -131 211 -379 307 -552 l173 -315 -427 -820
c-234 -452 -566 -1089 -736 -1416 -170 -327 -312 -598 -316 -602 -3 -4 -159
298 -346 672 -335 670 -339 679 -325 708 30 59 1525 2561 1531 2562 4 0 66
-107 139 -237z m975 -1746 l382 -682 -740 -3 c-407 -1 -742 0 -744 2 -3 2 129
262 292 578 386 743 416 800 423 793 3 -3 178 -313 387 -688z m2023 -889 c-8
-13 -162 -285 -343 -605 l-328 -583 -1588 0 c-874 0 -1589 3 -1589 6 0 5 250
490 612 1187 8 16 96 17 1630 17 l1620 0 -14 -22z"/>
</g>
</svg>
